<svg width="70" height="70" viewBox="0 0 70 70" fill="none" xmlns="http://www.w3.org/2000/svg">
<circle cx="35" cy="35" r="35" fill="#243941"/>
<g clip-path="url(#clip0_2_2)">
<path d="M35 46.25C32.0163 46.25 29.1548 45.0647 27.045 42.955C24.9353 40.8452 23.75 37.9837 23.75 35C23.75 32.0163 24.9353 29.1548 27.045 27.045C29.1548 24.9353 32.0163 23.75 35 23.75C41.2125 23.75 46.25 28.2275 46.25 33.75C46.25 35.075 45.6575 36.3475 44.6025 37.285C43.5475 38.2225 42.1162 38.75 40.625 38.75H37.5C36.9423 38.741 36.3977 38.9188 35.9527 39.255C35.5076 39.5912 35.1878 40.0666 35.0441 40.6055C34.9004 41.1444 34.9411 41.7159 35.1596 42.2291C35.3781 42.7423 35.7619 43.1676 36.25 43.4375C36.4996 43.6678 36.6707 43.9705 36.7394 44.3031C36.8081 44.6357 36.7709 44.9814 36.633 45.2917C36.495 45.6021 36.2633 45.8614 35.9705 46.0333C35.6776 46.2051 35.3382 46.2809 35 46.25Z" stroke="white" stroke-width="2.5" stroke-linecap="round" stroke-linejoin="round"/>
<path d="M29.375 33.125C29.375 33.4565 29.5067 33.7745 29.7411 34.0089C29.9755 34.2433 30.2935 34.375 30.625 34.375C30.9565 34.375 31.2745 34.2433 31.5089 34.0089C31.7433 33.7745 31.875 33.4565 31.875 33.125C31.875 32.7935 31.7433 32.4755 31.5089 32.2411C31.2745 32.0067 30.9565 31.875 30.625 31.875C30.2935 31.875 29.9755 32.0067 29.7411 32.2411C29.5067 32.4755 29.375 32.7935 29.375 33.125Z" stroke="white" stroke-width="2.5" stroke-linecap="round" stroke-linejoin="round"/>
<path d="M34.375 29.375C34.375 29.7065 34.5067 30.0245 34.7411 30.2589C34.9755 30.4933 35.2935 30.625 35.625 30.625C35.9565 30.625 36.2745 30.4933 36.5089 30.2589C36.7433 30.0245 36.875 29.7065 36.875 29.375C36.875 29.0435 36.7433 28.7255 36.5089 28.4911C36.2745 28.2567 35.9565 28.125 35.625 28.125C35.2935 28.125 34.9755 28.2567 34.7411 28.4911C34.5067 28.7255 34.375 29.0435 34.375 29.375Z" stroke="white" stroke-width="2.5" stroke-linecap="round" stroke-linejoin="round"/>
<path d="M39.375 33.125C39.375 33.4565 39.5067 33.7745 39.7411 34.0089C39.9755 34.2433 40.2935 34.375 40.625 34.375C40.9565 34.375 41.2745 34.2433 41.5089 34.0089C41.7433 33.7745 41.875 33.4565 41.875 33.125C41.875 32.7935 41.7433 32.4755 41.5089 32.2411C41.2745 32.0067 40.9565 31.875 40.625 31.875C40.2935 31.875 39.9755 32.0067 39.7411 32.2411C39.5067 32.4755 39.375 32.7935 39.375 33.125Z" stroke="white" stroke-width="2.5" stroke-linecap="round" stroke-linejoin="round"/>
</g>
<defs>
<clipPath id="clip0_2_2">
<rect width="30" height="30" fill="white" transform="translate(20 20)"/>
</clipPath>
</defs>
</svg>
